<svg width="189" height="38" viewBox="0 0 189 38" xmlns="http://www.w3.org/2000/svg">
<path d="M11.375 38H0V0H16.8409V10.3636H11.375L19.5 17.2727L27.625 10.3636H22.1591V0H39V38H27.625V22.4545L19.5 29.3636L11.375 22.4545V38Z" fill="#F6F6F6"/>
<path d="M67.232 14.2V24H65.3V16.048H61.842V24H59.91V14.2H67.232ZM72.3885 22.152H76.5185V24H70.4565V14.2H76.4485V16.048H72.3885V18.134H76.0985V19.954H72.3885V22.152ZM84.8523 14.2H86.7703V24H84.8523V19.94H81.2123V24H79.2803V14.2H81.2123V18.092H84.8523V14.2ZM95.0755 18.932C96.0088 19.4267 96.4755 20.2013 96.4755 21.256C96.4755 22.1333 96.1442 22.8427 95.4815 23.384C94.8188 23.9253 93.9648 24.196 92.9195 24.196C91.0995 24.196 89.8815 23.426 89.2655 21.886L90.9315 20.948C91.2302 21.9 91.8928 22.376 92.9195 22.376C93.4515 22.376 93.8575 22.264 94.1375 22.04C94.4175 21.816 94.5575 21.5127 94.5575 21.13C94.5575 20.7473 94.4175 20.444 94.1375 20.22C93.8668 19.996 93.4748 19.884 92.9615 19.884H91.7435V18.162H92.6675C93.1528 18.162 93.5308 18.0593 93.8015 17.854C94.0722 17.6393 94.2075 17.35 94.2075 16.986C94.2075 16.622 94.0908 16.3373 93.8575 16.132C93.6242 15.9173 93.2788 15.81 92.8215 15.81C91.9815 15.81 91.3935 16.2207 91.0575 17.042L89.4195 16.09C90.0822 14.6993 91.2162 14.004 92.8215 14.004C93.7922 14.004 94.5855 14.2653 95.2015 14.788C95.8175 15.3107 96.1255 16.0013 96.1255 16.86C96.1255 17.7373 95.7755 18.428 95.0755 18.932ZM104.701 14.2V16.048H101.061V24H99.1291V14.2H104.701ZM112.844 24V18.022L108.644 24H107.174V14.2H109.106V20.192L113.306 14.2H114.776V24H112.844ZM125.526 22.152H126.576V25.876H124.644V24H119.226V25.876H117.294V22.152H118.246C118.787 21.396 119.058 20.29 119.058 18.834V14.2H125.526V22.152ZM120.318 22.152H123.594V16.006H120.99V18.862C120.99 20.2807 120.766 21.3773 120.318 22.152ZM132.919 14.2C133.861 14.2 134.655 14.5173 135.299 15.152C135.943 15.7867 136.265 16.566 136.265 17.49C136.265 18.414 135.943 19.1933 135.299 19.828C134.655 20.4627 133.861 20.78 132.919 20.78H131.197V24H129.265V14.2H132.919ZM132.919 18.974C133.329 18.974 133.67 18.834 133.941 18.554C134.211 18.2647 134.347 17.91 134.347 17.49C134.347 17.0607 134.211 16.706 133.941 16.426C133.67 16.146 133.329 16.006 132.919 16.006H131.197V18.974H132.919ZM147.1 22.726C146.111 23.706 144.907 24.196 143.488 24.196C142.069 24.196 140.865 23.706 139.876 22.726C138.896 21.7367 138.406 20.528 138.406 19.1C138.406 17.672 138.896 16.468 139.876 15.488C140.865 14.4987 142.069 14.004 143.488 14.004C144.907 14.004 146.111 14.4987 147.1 15.488C148.089 16.468 148.584 17.672 148.584 19.1C148.584 20.528 148.089 21.7367 147.1 22.726ZM141.234 21.41C141.841 22.0073 142.592 22.306 143.488 22.306C144.384 22.306 145.135 22.0073 145.742 21.41C146.349 20.8033 146.652 20.0333 146.652 19.1C146.652 18.1667 146.349 17.3967 145.742 16.79C145.135 16.1833 144.384 15.88 143.488 15.88C142.592 15.88 141.841 16.1833 141.234 16.79C140.627 17.3967 140.324 18.1667 140.324 19.1C140.324 20.0333 140.627 20.8033 141.234 21.41ZM160.932 14.2V24H159.014V17.644L156.256 22.194H156.032L153.274 17.658V24H151.342V14.2H153.33L156.144 18.834L158.944 14.2H160.932ZM170.458 24L169.87 22.236H165.964L165.376 24H163.29L166.72 14.2H169.114L172.558 24H170.458ZM166.58 20.43H169.268L167.924 16.426L166.58 20.43ZM184.36 14.2H186.292V24H174.91V14.2H176.842V22.152H179.642V14.2H181.56V22.152H184.36V14.2Z" fill="#F6F6F6"/>
</svg>
